<svg width="15" height="15" viewBox="0 0 15 15" fill="none" xmlns="http://www.w3.org/2000/svg">
<path fill-rule="evenodd" clip-rule="evenodd" d="M8.7645 1.2118C7.1409 0.776762 5.49596 1.03154 4.1387 1.79727C3.8982 1.93296 3.59323 1.84798 3.45754 1.60748C3.32185 1.36697 3.40683 1.062 3.64733 0.926317C5.22334 0.037177 7.13679 -0.259615 9.02332 0.245877C12.8465 1.27029 15.1153 5.20004 14.0909 9.02322C13.0665 12.8464 9.13675 15.1152 5.31358 14.0908C1.4904 13.0664 -0.77844 9.13665 0.245977 5.31348C0.448819 4.55646 0.765995 3.85951 1.17427 3.23682C1.55695 2.65318 2.3288 2.60798 2.81763 3.00363L7.48301 6.7797C7.69766 6.95342 7.73082 7.26826 7.55709 7.48291C7.38337 7.69756 7.06852 7.73072 6.85388 7.55699L4.16074 5.37722C3.84798 5.90112 3.66845 6.51337 3.66845 7.16834C3.66845 9.10134 5.23545 10.6683 7.16845 10.6683C9.10144 10.6683 10.6684 9.10134 10.6684 7.16834C10.6684 5.23535 9.10144 3.66834 7.16845 3.66834C6.78081 3.66834 6.40887 3.73117 6.06164 3.84681C5.79965 3.93407 5.51652 3.79241 5.42927 3.53042C5.34202 3.26842 5.48367 2.9853 5.74566 2.89805C6.19349 2.7489 6.67206 2.66834 7.16845 2.66834C9.65373 2.66834 11.6684 4.68306 11.6684 7.16834C11.6684 9.65363 9.65373 11.6683 7.16845 11.6683C4.68316 11.6683 2.66845 9.65363 2.66845 7.16834C2.66845 6.27575 2.92875 5.44306 3.37731 4.74313L2.1885 3.78093C2.15127 3.7508 2.10938 3.74175 2.07613 3.74577C2.04584 3.74943 2.02533 3.76258 2.01054 3.78514C1.65988 4.31995 1.38686 4.91934 1.2119 5.57229C0.330428 8.862 2.28269 12.2434 5.57239 13.1249C8.8621 14.0064 12.2435 12.0541 13.125 8.7644C14.0065 5.47469 12.0542 2.09328 8.7645 1.2118Z" fill="#FF8D28"/>
</svg>
