<svg width="32" height="32" viewBox="0 0 32 32" fill="none" xmlns="http://www.w3.org/2000/svg">
<path d="M14.9993 2.66667C14.9993 2.11439 15.4471 1.66667 15.9993 1.66667C23.9154 1.66667 30.3327 8.08392 30.3327 16C30.3327 23.9161 23.9154 30.3333 15.9993 30.3333C8.08327 30.3333 1.66602 23.9161 1.66602 16C1.66602 11.9906 3.31354 8.36422 5.96597 5.764C6.36036 5.37737 6.99349 5.38366 7.38012 5.77805C7.76674 6.17244 7.76045 6.80557 7.36606 7.19219C5.08153 9.43176 3.66602 12.5497 3.66602 16C3.66602 22.8115 9.18784 28.3333 15.9993 28.3333C22.8109 28.3333 28.3327 22.8115 28.3327 16C28.3327 9.18849 22.8109 3.66667 15.9993 3.66667C15.4471 3.66667 14.9993 3.21896 14.9993 2.66667Z" fill="#2D2D2D"/>
<path d="M14.9993 6.66667C14.9993 6.11439 15.4471 5.66667 15.9993 5.66667C21.7063 5.66667 26.3327 10.2931 26.3327 16C26.3327 21.7069 21.7063 26.3333 15.9993 26.3333C10.2924 26.3333 5.66602 21.7069 5.66602 16C5.66602 15.4477 6.11373 15 6.66602 15C7.2183 15 7.66602 15.4477 7.66602 16C7.66602 20.6024 11.397 24.3333 15.9993 24.3333C20.6017 24.3333 24.3327 20.6024 24.3327 16C24.3327 11.3976 20.6017 7.66667 15.9993 7.66667C15.4471 7.66667 14.9993 7.21896 14.9993 6.66667Z" fill="#2D2D2D"/>
<path d="M15.9993 9.66667C15.4471 9.66667 14.9993 10.1144 14.9993 10.6667C14.9993 11.219 15.4471 11.6667 15.9993 11.6667C18.3926 11.6667 20.3327 13.6068 20.3327 16C20.3327 18.3932 18.3926 20.3333 15.9993 20.3333C15.4471 20.3333 14.9993 20.7811 14.9993 21.3333C14.9993 21.8856 15.4471 22.3333 15.9993 22.3333C19.4972 22.3333 22.3327 19.4978 22.3327 16C22.3327 12.5022 19.4972 9.66667 15.9993 9.66667Z" fill="#2D2D2D"/>
</svg>
