<svg width="32" height="28" viewBox="0 0 32 28" fill="none" xmlns="http://www.w3.org/2000/svg">
<path fill-rule="evenodd" clip-rule="evenodd" d="M15.6667 0C12.1689 0 9.33333 2.83553 9.33333 6.33333C9.33333 9.83114 12.1689 12.6667 15.6667 12.6667C19.1645 12.6667 22 9.83114 22 6.33333C22 2.83553 19.1645 0 15.6667 0ZM11.3333 6.33333C11.3333 3.9401 13.2734 2 15.6667 2C18.0599 2 20 3.9401 20 6.33333C20 8.72657 18.0599 10.6667 15.6667 10.6667C13.2734 10.6667 11.3333 8.72657 11.3333 6.33333Z" fill="#2D2D2D"/>
<path d="M23.6667 2.66667C23.1144 2.66667 22.6667 3.11438 22.6667 3.66667C22.6667 4.21895 23.1144 4.66667 23.6667 4.66667C25.502 4.66667 26.6667 5.87431 26.6667 7C26.6667 8.12569 25.502 9.33333 23.6667 9.33333C23.1144 9.33333 22.6667 9.78105 22.6667 10.3333C22.6667 10.8856 23.1144 11.3333 23.6667 11.3333C26.2496 11.3333 28.6667 9.55621 28.6667 7C28.6667 4.44379 26.2496 2.66667 23.6667 2.66667Z" fill="#2D2D2D"/>
<path d="M8.66667 3.66667C8.66667 3.11438 8.21895 2.66667 7.66667 2.66667C5.0837 2.66667 2.66667 4.44379 2.66667 7C2.66667 9.55621 5.0837 11.3333 7.66667 11.3333C8.21895 11.3333 8.66667 10.8856 8.66667 10.3333C8.66667 9.78105 8.21895 9.33333 7.66667 9.33333C5.83135 9.33333 4.66667 8.12569 4.66667 7C4.66667 5.87431 5.83135 4.66667 7.66667 4.66667C8.21895 4.66667 8.66667 4.21895 8.66667 3.66667Z" fill="#2D2D2D"/>
<path fill-rule="evenodd" clip-rule="evenodd" d="M15.6667 14.6667C13.2876 14.6667 11.0886 15.3077 9.45511 16.3967C7.82861 17.481 6.66667 19.0889 6.66667 21C6.66667 22.9111 7.82861 24.519 9.45511 25.6033C11.0886 26.6923 13.2876 27.3333 15.6667 27.3333C18.0457 27.3333 20.2447 26.6923 21.8782 25.6033C23.5047 24.519 24.6667 22.9111 24.6667 21C24.6667 19.0889 23.5047 17.481 21.8782 16.3967C20.2447 15.3077 18.0457 14.6667 15.6667 14.6667ZM8.66667 21C8.66667 19.9656 9.29558 18.9068 10.5645 18.0608C11.8265 17.2195 13.6274 16.6667 15.6667 16.6667C17.7059 16.6667 19.5069 17.2195 20.7688 18.0608C22.0378 18.9068 22.6667 19.9656 22.6667 21C22.6667 22.0344 22.0378 23.0932 20.7688 23.9392C19.5069 24.7805 17.7059 25.3333 15.6667 25.3333C13.6274 25.3333 11.8265 24.7805 10.5645 23.9392C9.29558 23.0932 8.66667 22.0344 8.66667 21Z" fill="#2D2D2D"/>
<path d="M25.3565 16.7858C25.4748 16.2463 26.0081 15.9049 26.5475 16.0232C27.83 16.3045 28.9857 16.8125 29.8437 17.5146C30.701 18.216 31.3333 19.1803 31.3333 20.3333C31.3333 21.4863 30.701 22.4506 29.8437 23.1521C28.9857 23.8542 27.83 24.3622 26.5475 24.6435C26.0081 24.7618 25.4748 24.4203 25.3565 23.8809C25.2382 23.3414 25.5797 22.8082 26.1191 22.6899C27.1756 22.4582 28.0199 22.0602 28.5772 21.6043C29.1352 21.1477 29.3333 20.7017 29.3333 20.3333C29.3333 19.9649 29.1352 19.519 28.5772 19.0624C28.0199 18.6064 27.1756 18.2085 26.1191 17.9768C25.5797 17.8585 25.2382 17.3253 25.3565 16.7858Z" fill="#2D2D2D"/>
<path d="M4.7858 16.0232C5.32526 15.9049 5.85849 16.2463 5.97679 16.7858C6.09509 17.3253 5.75367 17.8585 5.2142 17.9768C4.15772 18.2085 3.3134 18.6064 2.75616 19.0624C2.19817 19.519 2 19.9649 2 20.3333C2 20.7017 2.19817 21.1477 2.75616 21.6043C3.3134 22.0602 4.15772 22.4582 5.2142 22.6899C5.75367 22.8082 6.09509 23.3414 5.97679 23.8809C5.85849 24.4203 5.32526 24.7618 4.7858 24.6435C3.50329 24.3622 2.3476 23.8542 1.48959 23.1521C0.632331 22.4506 0 21.4863 0 20.3333C0 19.1803 0.632331 18.216 1.48959 17.5146C2.3476 16.8125 3.50329 16.3045 4.7858 16.0232Z" fill="#2D2D2D"/>
</svg>
