<svg width="32" height="32" viewBox="0 0 32 32" fill="none" xmlns="http://www.w3.org/2000/svg">
<path d="M20.0793 13.9994C20.4471 13.5874 20.4113 12.9552 19.9993 12.5874C19.5874 12.2196 18.9552 12.2554 18.5874 12.6673L14.5714 17.1652L13.4126 15.8673C13.0448 15.4554 12.4126 15.4196 12.0007 15.7874C11.5887 16.1552 11.5529 16.7874 11.9207 17.1994L13.8255 19.3327C14.0152 19.5452 14.2866 19.6667 14.5714 19.6667C14.8563 19.6667 15.1276 19.5452 15.3174 19.3327L20.0793 13.9994Z" fill="#2D2D2D"/>
<path fill-rule="evenodd" clip-rule="evenodd" d="M16 1.66667C14.75 1.66667 13.5564 2.07545 11.6312 2.73483L10.6613 3.06685C8.68616 3.74294 7.16187 4.2647 6.07071 4.70799C5.52105 4.93128 5.04849 5.14756 4.66798 5.36855C4.30179 5.58121 3.93443 5.84646 3.68484 6.20206C3.43814 6.55355 3.31058 6.98566 3.23042 7.40163C3.14708 7.83408 3.09683 8.35285 3.0644 8.94849C3 10.1312 3 11.7514 3 13.8528V15.9885C3 24.1232 9.14404 28.0234 12.7978 29.6194L12.8339 29.6352C13.287 29.8332 13.7128 30.0193 14.2021 30.1445C14.7188 30.2768 15.2677 30.3333 16 30.3333C16.7323 30.3333 17.2812 30.2768 17.7979 30.1445C18.2872 30.0193 18.713 29.8332 19.1661 29.6352L19.2022 29.6194C22.856 28.0234 29 24.1232 29 15.9885V13.8531C29 11.7515 29 10.1312 28.9356 8.94849C28.9032 8.35285 28.8529 7.83408 28.7696 7.40163C28.6894 6.98566 28.5619 6.55355 28.3152 6.20206C28.0656 5.84646 27.6982 5.58121 27.332 5.36855C26.9515 5.14756 26.479 4.93128 25.9293 4.70799C24.8381 4.2647 23.3138 3.74293 21.3387 3.06685L20.3688 2.73483C18.4436 2.07545 17.25 1.66667 16 1.66667ZM12.1075 4.68573C14.2602 3.94885 15.123 3.66667 16 3.66667C16.877 3.66667 17.7398 3.94885 19.8925 4.68573L20.6563 4.94717C22.6731 5.63752 24.1439 6.1414 25.1765 6.56092C25.692 6.77032 26.0655 6.9458 26.3276 7.09805C26.457 7.17321 26.5462 7.23523 26.6058 7.28364C26.6562 7.32466 26.6755 7.34789 26.6783 7.35131C26.6808 7.35547 26.6974 7.38316 26.7208 7.44872C26.7474 7.52353 26.7769 7.63079 26.8057 7.78008C26.8639 8.08226 26.9081 8.49736 26.9386 9.05723C26.9996 10.1788 27 11.7444 27 13.8889V15.9885C27 22.8886 21.8401 26.2846 18.4016 27.7867C17.9063 28.003 17.6203 28.1255 17.3019 28.207C16.9978 28.2849 16.6267 28.3333 16 28.3333C15.3733 28.3333 15.0022 28.2849 14.6981 28.207C14.3797 28.1255 14.0937 28.003 13.5984 27.7867C10.1599 26.2846 5 22.8886 5 15.9885V13.8889C5 11.7444 5.00037 10.1788 5.06144 9.05723C5.09193 8.49736 5.13605 8.08226 5.19429 7.78008C5.22306 7.63079 5.25259 7.52353 5.27924 7.44872C5.30257 7.38321 5.31914 7.35551 5.32172 7.35132C5.32448 7.34793 5.34373 7.32469 5.39423 7.28364C5.45378 7.23523 5.54296 7.17321 5.67238 7.09805C5.93454 6.9458 6.308 6.77032 6.82346 6.56092C7.85613 6.1414 9.32695 5.63752 11.3437 4.94717L12.1075 4.68573Z" fill="#2D2D2D"/>
</svg>
