<svg width="69" height="68" viewBox="0 0 69 68" fill="none" xmlns="http://www.w3.org/2000/svg">
<ellipse cx="34.4651" cy="33.6863" rx="34.4651" ry="33.6863" fill="#A6CE39"/>
<g clip-path="url(#clip0_2_2878)">
<path fill-rule="evenodd" clip-rule="evenodd" d="M38.056 43.9563C39.9554 45.0062 42.4593 47.359 41.0355 49.5197C40.7832 49.8892 40.4315 50.1932 40.014 50.4035C39.5967 50.6138 39.1275 50.7239 38.6508 50.7219H29.6429C29.1662 50.7239 28.6971 50.6138 28.2797 50.4035C27.8622 50.1932 27.5105 49.8892 27.2582 49.5197C25.8372 47.3625 28.3329 45.005 30.2318 43.9563C31.2777 44.8888 32.682 45.4104 34.1439 45.4104C35.6058 45.4103 37.0101 44.8889 38.056 43.9563ZM20.0013 42.6506C20.9638 43.5119 22.2343 44.0276 23.5795 44.1028C24.9246 44.1779 26.2544 43.8075 27.3246 43.0598C27.7083 42.7895 27.8874 42.44 28.2133 42.9924C27.8728 43.225 27.5514 43.48 27.2513 43.7551C25.9856 44.9311 24.7854 46.496 24.8129 48.2082C24.7133 48.628 25.263 49.505 24.6918 49.4162H19.4135C18.9385 49.4174 18.4711 49.308 18.0551 49.0989C17.639 48.8897 17.2875 48.5879 17.0345 48.2209C15.6092 46.0665 18.1032 43.706 20.0013 42.6506ZM48.2845 42.6506C49.652 43.3709 50.7475 44.4542 51.4252 45.7561C51.6219 46.1478 51.7082 46.5781 51.6761 47.008C51.6441 47.438 51.4946 47.8542 51.2416 48.218C50.9886 48.5816 50.6403 48.8818 50.2279 49.091C49.8153 49.3004 49.3513 49.4122 48.8793 49.4162H43.601C43.0295 49.5016 43.5804 48.6324 43.4808 48.2082C43.5039 46.5003 42.3076 44.9312 41.0424 43.7551C40.6952 43.2939 39.5902 43.0287 40.4603 42.6565C41.5037 43.592 42.9071 44.1183 44.3695 44.1213C45.0961 44.1244 45.8166 43.9957 46.4886 43.7434C47.1605 43.4911 47.7706 43.1194 48.2845 42.6506ZM29.9095 40.3391C30.1071 35.2131 38.1843 35.2128 38.3822 40.3391C38.1946 45.4498 30.0983 45.4518 29.9095 40.3391ZM44.3695 35.1662C49.9841 35.3345 49.9652 42.7445 44.3705 42.9016C38.7765 42.7214 38.7538 35.3533 44.3695 35.1662ZM23.9232 35.1653C24.5967 35.1652 25.2607 35.3109 25.8597 35.592C26.4588 35.8731 26.9755 36.2814 27.3676 36.7815C27.7595 37.2815 28.0154 37.8597 28.1136 38.468C28.2119 39.0763 28.1502 39.6975 27.933 40.2795C27.7158 40.8616 27.3492 41.3876 26.8646 41.8147C26.38 42.2417 25.7907 42.5571 25.1459 42.7346C24.5011 42.9121 23.819 42.9474 23.1566 42.8362C22.4943 42.7248 21.8706 42.4704 21.3373 42.0949C18.1617 39.9454 19.9088 35.1259 23.9232 35.1653ZM24.7054 25.1184C24.8993 25.4461 25.1443 25.8117 25.4076 26.1682C24.0913 27.2404 23.028 28.5469 22.2836 30.0071C21.5392 31.4671 21.1287 33.0506 21.0775 34.6604C20.5924 34.9194 20.155 35.2466 19.7816 35.6301C19.6631 33.6505 20.0458 31.6727 20.8998 29.8498C21.7538 28.027 23.0556 26.4075 24.7054 25.1184ZM43.5941 25.1184C46.862 27.5812 48.9054 32.0185 48.5121 35.5871C48.1156 35.2386 47.6807 34.9285 47.2152 34.6604C47.1636 33.0492 46.7527 31.4643 46.0072 30.0031C45.2616 28.542 44.1971 27.2349 42.8793 26.1623C43.138 25.8266 43.3765 25.4776 43.5941 25.1184ZM36.7523 16.7961C37.7717 16.5076 38.8616 16.4989 39.8861 16.7717C43.8584 18.0171 44.3608 22.1457 41.8441 25.3918C40.2397 27.3931 38.1903 29.0631 35.8304 30.2912C35.3237 30.5744 34.7409 30.7238 34.1469 30.7239C33.5526 30.7239 32.9691 30.5745 32.4623 30.2912C30.1024 29.0631 28.053 27.3931 26.4486 25.3918C25.294 24.0608 24.6633 21.4792 24.932 20.6457C25.4587 16.4628 31.1838 15.1624 34.1527 18.3947C34.8286 17.6406 35.733 17.0847 36.7523 16.7961Z" fill="white"/>
</g>
<defs>
<clipPath id="clip0_2_2878">
<rect width="38.1193" height="34.1485" fill="white" transform="translate(15.0889 16.5726)"/>
</clipPath>
</defs>
</svg>
