<svg width="1054" height="370" viewBox="0 0 1054 370" fill="none" xmlns="http://www.w3.org/2000/svg">
<g filter="url(#filter0_d_363_362)">
<rect x="25" y="15" width="1004" height="320" rx="10" fill="white"/>
</g>
<mask id="mask0_363_362" style="mask-type:alpha" maskUnits="userSpaceOnUse" x="25" y="15" width="1004" height="320">
<rect x="25" y="15" width="1004" height="320" rx="10" fill="#FAFAFA"/>
</mask>
<g mask="url(#mask0_363_362)">
<path d="M-230.586 376.961C-171.531 351.06 -110.435 324.26 -33.6845 324.26C43.0664 324.26 104.136 351.041 163.191 376.961L165.155 374.496C105.635 348.403 44.0997 321.412 -33.7103 321.412C-111.52 321.412 -173.055 348.403 -232.575 374.496L-230.612 376.961H-230.586Z" fill="#F5F5F5"/>
<path d="M560.922 376.963C620.002 351.062 681.072 324.262 757.797 324.262C834.523 324.262 895.618 351.043 954.673 376.944L956.637 374.478C897.117 348.385 835.582 321.395 757.772 321.395C679.962 321.395 618.427 348.385 558.932 374.478L560.896 376.944L560.922 376.963Z" fill="#F5F5F5"/>
<path d="M-275.665 377.001C-260.45 370.846 -245.285 364.194 -230.586 357.752C-171.505 331.85 -110.435 305.051 -33.6845 305.051C43.0664 305.051 104.136 331.831 163.191 357.752C177.865 364.194 193.055 370.846 208.271 377.001L210.131 374.478C194.992 368.342 179.828 361.689 165.155 355.267C105.635 329.155 44.0997 302.164 -33.7103 302.164C-111.52 302.164 -173.055 329.155 -232.575 355.267C-247.223 361.689 -262.387 368.342 -277.525 374.478L-275.665 377.001Z" fill="#F5F5F5"/>
<path d="M515.842 377.001C531.058 370.846 546.248 364.194 560.921 357.733C619.976 331.831 681.072 305.031 757.797 305.031C834.522 305.031 895.618 331.812 954.699 357.733C969.398 364.174 984.562 370.827 999.778 377.001L1001.64 374.478C986.474 368.342 971.335 361.689 956.662 355.267C897.142 329.155 835.607 302.164 757.797 302.164C679.987 302.164 618.452 329.155 558.932 355.248C544.284 361.67 529.12 368.322 513.956 374.459L515.816 376.982L515.842 377.001Z" fill="#F5F5F5"/>
<path d="M-330.484 377.077C-295.376 366.927 -262.439 352.476 -230.586 338.522C-171.505 312.62 -110.435 285.82 -33.6845 285.82C43.0664 285.82 104.136 312.601 163.191 338.502C195.044 352.476 228.007 366.927 263.089 377.077L264.51 374.401C229.712 364.346 196.904 349.953 165.155 336.037C105.635 309.925 44.0997 282.953 -33.7104 282.953C-111.52 282.953 -173.055 309.944 -232.575 336.056C-264.299 349.972 -297.107 364.346 -331.905 374.42L-330.484 377.096V377.077Z" fill="#F5F5F5"/>
<path d="M460.998 377.077C496.106 366.926 529.043 352.475 560.896 338.502C619.951 312.6 681.047 285.801 757.797 285.801C834.548 285.801 895.618 312.581 954.673 338.483C986.319 352.36 1019.05 366.716 1053.9 376.847L1055.32 374.171C1020.78 364.116 988.179 349.837 956.662 335.998C897.142 309.905 835.607 282.914 757.797 282.914C679.987 282.914 618.452 309.905 558.932 335.998C527.209 349.914 494.401 364.307 459.603 374.362L461.024 377.038L460.998 377.077Z" fill="#F5F5F5"/>
<path d="M362.056 372.355C439.866 372.355 501.401 345.364 560.921 319.271C619.976 293.37 681.072 266.57 757.797 266.57C834.522 266.57 895.618 293.351 954.673 319.252C986.319 333.13 1019.05 347.486 1053.9 357.617L1055.32 354.94C1020.78 344.886 988.179 330.607 956.662 316.767C897.142 290.675 835.607 263.684 757.797 263.684C679.987 263.684 618.452 290.675 558.932 316.767C499.877 342.668 438.781 369.468 362.056 369.468C285.331 369.468 224.236 342.688 165.181 316.767C105.661 290.675 44.1255 263.684 -33.6845 263.684V266.551C43.0663 266.551 104.136 293.332 163.191 319.252C222.711 345.345 284.246 372.336 362.056 372.336V372.355Z" fill="#F5F5F5"/>
<path d="M362.056 353.126C439.866 353.126 501.401 326.135 560.921 300.023C619.976 274.122 681.072 247.322 757.797 247.322C834.522 247.322 895.618 274.103 954.673 300.023C986.319 313.901 1019.05 328.257 1053.9 338.388L1055.32 335.712C1020.78 325.657 988.179 311.359 956.662 297.538C897.142 271.426 835.607 244.436 757.797 244.436C679.987 244.436 618.452 271.426 558.932 297.538C499.877 323.439 438.781 350.239 362.056 350.239C285.331 350.239 224.236 323.459 165.181 297.538C105.661 271.426 44.1255 244.436 -33.6845 244.436V247.303C43.0663 247.303 104.136 274.084 163.191 300.004C222.711 326.116 284.246 353.107 362.056 353.107V353.126Z" fill="#F5F5F5"/>
<path d="M362.056 333.896C439.866 333.896 501.401 306.905 560.921 280.812C619.976 254.911 681.072 228.111 757.797 228.111C834.522 228.111 895.618 254.892 954.673 280.793C986.319 294.671 1019.05 309.027 1053.9 319.158L1055.32 316.482C1020.78 306.427 988.179 292.148 956.662 278.308C897.142 252.216 835.607 225.225 757.797 225.225C679.987 225.225 618.452 252.216 558.932 278.308C499.877 304.209 438.781 331.009 362.056 331.009C285.331 331.009 224.236 304.229 165.181 278.308C105.661 252.216 44.1255 225.225 -33.6845 225.225V228.092C43.0663 228.092 104.136 254.873 163.191 280.793C222.711 306.886 284.246 333.877 362.056 333.877V333.896Z" fill="#F5F5F5"/>
<path d="M362.056 314.665C439.866 314.665 501.401 287.674 560.921 261.582C619.976 235.68 681.072 208.881 757.797 208.881C834.522 208.881 895.618 235.661 954.673 261.563C986.319 275.44 1019.05 289.796 1053.9 299.927L1055.32 297.251C1020.78 287.196 988.179 272.917 956.662 259.078C897.142 232.985 835.607 205.994 757.797 205.994C679.987 205.994 618.452 232.985 558.932 259.078C499.877 284.979 438.781 311.779 362.056 311.779C285.331 311.779 224.236 284.998 165.181 259.078C105.661 232.985 44.1255 205.994 -33.6845 205.994V208.861C43.0663 208.861 104.136 235.642 163.191 261.563C222.711 287.655 284.246 314.646 362.056 314.646V314.665Z" fill="#F5F5F5"/>
<path d="M362.056 295.435C439.866 295.435 501.401 268.444 560.921 242.352C619.976 216.45 681.072 189.67 757.797 189.67C834.522 189.67 895.618 216.45 954.673 242.352C986.319 256.229 1019.05 270.585 1053.9 280.716L1055.32 278.04C1020.78 267.985 988.179 253.706 956.662 239.867C897.142 213.774 835.607 186.783 757.797 186.783C679.987 186.783 618.452 213.774 558.932 239.867C499.877 265.768 438.781 292.549 362.056 292.549C285.331 292.549 224.236 265.768 165.181 239.867C105.661 213.755 44.1255 186.783 -33.6845 186.783V189.651C43.0663 189.651 104.136 216.431 163.191 242.333C222.711 268.425 284.246 295.416 362.056 295.416V295.435Z" fill="#F5F5F5"/>
<path d="M362.056 276.187C439.866 276.187 501.401 249.196 560.921 223.103C619.976 197.202 681.072 170.402 757.797 170.402C834.522 170.402 895.618 197.183 954.673 223.084C986.319 236.962 1019.05 251.318 1053.9 261.449L1055.32 258.773C1020.78 248.718 988.179 234.439 956.662 220.599C897.142 194.507 835.607 167.516 757.797 167.516C679.987 167.516 618.452 194.507 558.932 220.599C499.877 246.5 438.781 273.3 362.056 273.3C285.331 273.3 224.236 246.52 165.181 220.599C105.661 194.507 44.1255 167.516 -33.6845 167.516V170.383C43.0663 170.383 104.136 197.164 163.191 223.084C222.711 249.177 284.246 276.168 362.056 276.168V276.187Z" fill="#F5F5F5"/>
<path d="M362.056 256.957C439.866 256.957 501.401 229.966 560.921 203.873C619.976 177.972 681.072 151.191 757.797 151.191C834.522 151.191 895.618 177.972 954.673 203.873C986.319 217.751 1019.05 232.107 1053.9 242.238L1055.32 239.562C1020.78 229.507 988.179 215.228 956.662 201.388C897.142 175.296 835.607 148.305 757.797 148.305C679.987 148.305 618.452 175.296 558.932 201.388C499.877 227.29 438.781 254.07 362.056 254.07C285.331 254.07 224.236 227.29 165.181 201.388C105.661 175.277 44.1255 148.305 -33.6845 148.305V151.172C43.0663 151.172 104.136 177.953 163.191 203.854C222.711 229.947 284.246 256.938 362.056 256.938V256.957Z" fill="#F5F5F5"/>
<path d="M362.056 237.726C439.866 237.726 501.401 210.735 560.921 184.643C619.976 158.741 681.072 131.961 757.797 131.961C834.522 131.961 895.618 158.741 954.673 184.643C986.319 198.52 1019.05 212.876 1053.9 223.007L1055.32 220.331C1020.78 210.276 988.179 195.997 956.662 182.158C897.142 156.065 835.607 129.074 757.797 129.074C679.987 129.074 618.452 156.065 558.932 182.158C499.877 208.059 438.781 234.859 362.056 234.859C285.331 234.859 224.236 208.078 165.181 182.158C105.661 156.065 44.1255 129.074 -33.6845 129.074V131.942C43.0663 131.942 104.136 158.722 163.191 184.624C222.711 210.716 284.246 237.707 362.056 237.707V237.726Z" fill="#F5F5F5"/>
<path d="M362.056 218.496C439.866 218.496 501.401 191.505 560.921 165.412C619.976 139.511 681.072 112.73 757.797 112.73C834.522 112.73 895.618 139.511 954.673 165.412C986.319 179.29 1019.05 193.646 1053.9 203.777L1055.32 201.101C1020.78 191.046 988.179 176.767 956.662 162.927C897.142 136.835 835.607 109.844 757.797 109.844C679.987 109.844 618.452 136.835 558.932 162.927C499.877 188.829 438.781 215.628 362.056 215.628C285.331 215.628 224.236 188.848 165.181 162.927C105.661 136.835 44.1255 109.844 -33.6845 109.844V112.711C43.0663 112.711 104.136 139.492 163.191 165.393C222.711 191.486 284.246 218.477 362.056 218.477V218.496Z" fill="#F5F5F5"/>
</g>
<defs>
<filter id="filter0_d_363_362" x="0" y="0" width="1054" height="370" filterUnits="userSpaceOnUse" color-interpolation-filters="sRGB">
<feFlood flood-opacity="0" result="BackgroundImageFix"/>
<feColorMatrix in="SourceAlpha" type="matrix" values="0 0 0 0 0 0 0 0 0 0 0 0 0 0 0 0 0 0 127 0" result="hardAlpha"/>
<feOffset dy="10"/>
<feGaussianBlur stdDeviation="12.5"/>
<feComposite in2="hardAlpha" operator="out"/>
<feColorMatrix type="matrix" values="0 0 0 0 0.129412 0 0 0 0 0.203922 0 0 0 0 0.188235 0 0 0 0.08 0"/>
<feBlend mode="normal" in2="BackgroundImageFix" result="effect1_dropShadow_363_362"/>
<feBlend mode="normal" in="SourceGraphic" in2="effect1_dropShadow_363_362" result="shape"/>
</filter>
</defs>
</svg>
