<svg width="60" height="64" viewBox="0 0 60 64" fill="none" xmlns="http://www.w3.org/2000/svg">
<path fill-rule="evenodd" clip-rule="evenodd" d="M42.9169 49.4589C42.9169 48.066 44.8714 46.135 45.596 45.1894C46.1197 45.1912 45.9502 45.1892 46.7441 45.1892C46.7441 46.7018 46.9407 48.5058 46.5528 49.9606C45.6886 50.1365 42.9169 50.4336 42.9169 49.4589ZM40.2378 50.1278C38.247 50.1278 37.9821 50.297 36.9705 48.8024C36.6039 48.2608 36.0226 47.4811 35.8365 46.7831C36.6708 47.2714 39.3732 48.8943 40.2378 48.9572C40.2096 48.3335 40.1776 48.1302 40.1499 47.9483C39.7928 47.682 35.4868 45.5148 34.806 45.1745C37.7364 45.1893 40.7476 45.1988 43.6897 45.1833C43.0012 46.0818 40.2378 47.7347 40.2378 50.1278ZM27.9906 44.1074L28.182 47.7865C26.3041 48.8855 25.099 49.8441 23.2066 49.4589C23.2568 47.4916 25.6634 47.1336 26.0771 45.7797C24.4303 45.7797 22.6242 46.6279 22.9982 45.5312C23.1251 45.1587 23.5792 44.8265 23.9199 44.5627C24.7849 43.893 24.7941 44.028 25.8857 44.1074C25.6944 44.7333 24.78 45.3782 26.2737 45.2453C27.3656 45.1481 27.1453 44.6021 27.9906 44.1074ZM27.9906 44.1074C28.4198 43.588 28.1356 43.588 28.5648 44.1074H27.9906ZM13.8299 44.1074H1.19995C1.19995 44.5895 1.20557 44.9925 1.20579 45.1854C4.45681 45.1945 7.70836 45.1924 10.9595 45.1974V50.1278H5.60127C4.67943 50.1278 4.57587 49.8105 4.26176 49.2917C5.7435 47.9265 7.70924 48.086 9.61988 47.2848V46.1142C8.11806 46.42 6.52889 46.7612 5.04789 47.1357C-0.326504 48.4949 2.03579 51.2985 3.87903 51.2985H10.9595V56.6499L13.6385 56.8172V45.6125C13.6385 45.3863 13.6378 45.2535 13.6413 45.1927C13.9631 45.1889 15.6247 45.1867 15.947 45.1914C15.9915 46.9803 15.9596 55.7831 15.9549 56.3614C16.7249 56.5669 16.7716 56.5756 18.6139 56.8173V45.1897C19.343 45.1874 19.6081 45.1904 20.1448 45.1895V44.1075H16.7003C16.7868 43.1995 17.3207 43.381 18.5509 42.8818L23.0125 41.0949C23.5097 40.8801 24.7706 40.3712 25.3116 40.2611V42.4352C23.4733 43.2852 20.5276 44.4681 20.5276 46.2815C20.5276 47.1059 21.6579 47.1177 22.6325 47.1177C22.4116 47.406 19.0747 49.7853 21.197 51.048C22.7008 51.9427 24.4097 51.2283 25.7338 50.4969C27.3987 49.5772 27.9947 48.9634 28.1829 49.3874C28.1649 49.8149 28.1878 55.0263 28.2122 56.2862C29.1485 56.3969 30.4411 56.5515 31.0531 56.5957C31.078 56.04 31.0531 54.9185 31.0525 54.3088V45.1955C31.6378 45.196 31.8657 45.2169 32.0718 45.2461C32.3963 45.2921 32.657 45.6684 34.1167 48.1189C36.1499 51.5322 35.6046 51.2986 40.2378 51.2986V50.6297C40.6663 50.8804 40.9101 51.2986 41.386 51.2986C49.2104 51.2986 49.4523 51.9307 49.4247 48.9586C49.4134 47.7331 49.4231 46.4153 49.4231 45.1893C49.7588 45.1893 50.3839 45.1898 50.5713 45.1871V52.1346C49.5466 52.1346 48.9563 52.128 48.1481 52.6927C44.0307 55.5694 53.1678 58.0739 53.4417 54.9776C53.4417 54.4782 53.3045 54.215 53.0567 54.08C52.668 53.9672 51.9914 53.9742 51.1454 53.9742C51.9697 57.0673 46.7773 53.3053 51.7195 53.3053C53.7329 53.3053 56.3288 56.4821 56.8863 56.8172C57.5619 56.8172 58.0868 56.8033 58.7999 56.8172C58.7011 55.7796 54.126 52.4801 53.2504 52.3019V45.1891C54.2032 45.1891 54.517 45.1924 54.7845 45.1885C54.79 45.0358 54.7813 44.675 54.7813 44.1074H30.6697C30.0222 44.1074 29.3599 43.3234 31.6617 42.1314C32.2086 41.8481 33.2122 41.2184 33.7316 41.0972C33.7468 41.6962 33.4626 41.9518 35.8365 42.4351C35.8365 39.818 36.6692 38.1719 31.1835 41.0445C30.5809 41.3601 30.2093 41.5177 29.5978 41.8328C28.339 42.4814 28.9471 42.5275 28.182 42.7695C27.844 41.5016 27.9906 40.6049 27.9906 39.0904C24.5063 39.0904 25.288 38.943 22.3127 40.1488L14.9716 43.0984C14.3534 43.3701 14.0262 43.4649 13.8299 44.1074Z" fill="white"/>
<path fill-rule="evenodd" clip-rule="evenodd" d="M21.1015 2.80061C22.8562 5.09046 29.8069 1.15766 31.7439 15.586C32.2412 19.2925 28.1215 30.1 25.3115 31.8994C24.0604 31.0982 15.0587 18.662 14.9479 18.2124C14.7565 17.4369 14.5952 16.1512 14.5952 15.1759C14.2509 15.2563 11.6942 21.0946 10.7063 23.0897C13.7468 26.6162 20.3347 34.5545 20.7187 38.5887C39.1523 38.6532 49.8386 33.389 53.4417 21.6981C47.7907 33.0288 33.5401 38.6077 25.8343 37.7996L22.8237 37.5853C26.3174 32.883 29.0295 29.2847 31.8818 24.0953C37.9644 13.0278 37.0937 -4.52997 23.5317 1.07807C22.8291 1.36857 21.2921 2.17656 21.1015 2.80061Z" fill="white"/>
<path fill-rule="evenodd" clip-rule="evenodd" d="M48.1259 18.37C44.8646 20.269 40.5286 21.0391 34.7842 18.37C40.2131 15.9558 44.3784 16.6492 48.1259 18.37Z" fill="#B4E423"/>
<path fill-rule="evenodd" clip-rule="evenodd" d="M31.0573 17.8685C28.2172 18.1137 24.7724 17.1269 20.9053 13.0593C25.492 13.2101 28.5306 15.2302 31.0573 17.8685Z" fill="#B4E423"/>
<path fill-rule="evenodd" clip-rule="evenodd" d="M28.8958 24.84C26.7107 25.0129 24.0605 24.317 21.0852 21.4487C24.6141 21.555 26.9518 22.9795 28.8958 24.84Z" fill="#B4E423"/>
<path fill-rule="evenodd" clip-rule="evenodd" d="M32.0801 25.9428C34.1707 26.8636 36.8768 26.9884 40.3076 24.8423C36.8588 23.7775 34.3192 24.5555 32.0801 25.9428Z" fill="#B4E423"/>
<path fill-rule="evenodd" clip-rule="evenodd" d="M1.179 62.6404C1.05913 62.6404 0.951256 62.6309 0.856034 62.6121C0.760745 62.5933 0.67954 62.5658 0.611572 62.5294V61.9613C0.705469 62.0811 0.811456 62.1757 0.928563 62.2441C1.04583 62.3124 1.16237 62.3469 1.27689 62.3469C1.35816 62.3469 1.42676 62.3237 1.48466 62.2773C1.54198 62.2303 1.57058 62.1739 1.57058 62.108C1.57058 62.0541 1.54796 62.0008 1.50198 61.9475C1.45675 61.8948 1.39479 61.8503 1.31626 61.8133L1.02253 61.6666C0.897309 61.6077 0.797435 61.5305 0.72349 61.4346C0.64885 61.3393 0.611572 61.2383 0.611572 61.133C0.611572 60.9662 0.697493 60.8232 0.868637 60.7048C1.04048 60.5856 1.24696 60.5261 1.48873 60.5261C1.55135 60.5261 1.60655 60.5292 1.65452 60.5354C1.70317 60.5411 1.74514 60.5505 1.78172 60.5631L1.80106 60.9493C1.73114 60.9248 1.65922 60.9067 1.58662 60.8941C1.51337 60.8822 1.44204 60.8759 1.37218 60.8759C1.29091 60.8759 1.22301 60.8935 1.16702 60.9292C1.11112 60.965 1.08308 61.0082 1.08308 61.0597C1.08308 61.0866 1.09908 61.1167 1.1304 61.1499C1.16174 61.1832 1.20295 61.2139 1.25492 61.2434L1.5879 61.4089C1.71847 61.4628 1.82241 61.5431 1.90094 61.6496C1.97884 61.7563 2.01813 61.8722 2.01813 61.997C2.01813 62.1732 1.93621 62.325 1.77242 62.451C1.60797 62.577 1.41013 62.6404 1.179 62.6404ZM3.05381 62.6216C2.79337 62.6216 2.58491 62.525 2.42906 62.3313C2.27327 62.1375 2.19532 61.8785 2.19532 61.555C2.19532 61.2314 2.27525 60.9725 2.43574 60.7787C2.59625 60.585 2.80937 60.4884 3.07515 60.4884C3.34615 60.4884 3.56396 60.5806 3.72771 60.7643C3.89159 60.948 3.97349 61.1932 3.97349 61.4998C3.97349 61.8384 3.89031 62.1099 3.72312 62.3143C3.55593 62.5193 3.33347 62.6216 3.05381 62.6216ZM3.09438 62.3281C3.20093 62.3281 3.29289 62.2529 3.36812 62.1017C3.44411 61.9506 3.48199 61.7688 3.48199 61.555C3.48199 61.3318 3.44741 61.1468 3.37812 61.0007C3.30883 60.8546 3.22099 60.7819 3.11373 60.7819C2.98316 60.7819 2.87866 60.8534 2.80007 60.9969C2.7221 61.1406 2.6828 61.333 2.6828 61.5731C2.6828 61.782 2.72349 61.9601 2.80407 62.1074C2.88527 62.2548 2.98184 62.3281 3.09438 62.3281ZM5.01579 62.6742C4.78466 62.6742 4.58691 62.5758 4.42302 62.3789C4.25927 62.182 4.17731 61.9443 4.17731 61.6654C4.17731 61.3719 4.27992 61.1211 4.48499 60.9129C4.69078 60.7054 4.93854 60.6013 5.23023 60.6013H5.50329V61.1161C5.44335 61.0571 5.38273 61.012 5.32215 60.98C5.26088 60.948 5.20426 60.9324 5.15229 60.9324C5.01179 60.9324 4.89192 60.9982 4.79333 61.1305C4.69409 61.2622 4.64486 61.4221 4.64486 61.6101C4.64486 61.8127 4.70015 61.9857 4.81065 62.1287C4.92185 62.2716 5.05509 62.3432 5.21095 62.3432C5.2582 62.3432 5.3108 62.3294 5.36947 62.3011C5.428 62.2729 5.48597 62.2315 5.54322 62.1776L5.69913 62.3983C5.62117 62.4867 5.52194 62.5544 5.40272 62.6027C5.28285 62.6504 5.15433 62.6742 5.01579 62.6742ZM5.95217 62.5839V61.0051C5.95217 60.9392 5.94887 60.8722 5.94218 60.8051C5.93613 60.738 5.9262 60.6696 5.91288 60.6013H6.41972V62.1801C6.41972 62.2704 6.42305 62.35 6.42966 62.4184C6.43635 62.4874 6.44628 62.5425 6.45902 62.5839H5.95217ZM6.12599 60.417C6.05611 60.417 5.99605 60.39 5.9462 60.3361C5.8969 60.2821 5.87225 60.2176 5.87225 60.1417C5.87225 60.0458 5.8969 59.9636 5.9462 59.8953C5.99605 59.8269 6.05611 59.7925 6.12599 59.7925C6.20185 59.7925 6.26649 59.8232 6.31981 59.884C6.3731 59.9455 6.39966 60.0188 6.39966 60.1047C6.39966 60.1906 6.3731 60.264 6.31981 60.3255C6.26649 60.3862 6.20185 60.417 6.12599 60.417ZM7.25154 62.6027C7.10032 62.6027 6.9718 62.5544 6.86525 62.4572C6.75868 62.3607 6.70539 62.2441 6.70539 62.1068C6.70539 61.9011 6.80131 61.7148 6.99243 61.5481C7.18357 61.3813 7.42598 61.2735 7.71972 61.2246C7.71972 61.1142 7.68042 61.0258 7.60248 60.9581C7.52458 60.8909 7.42064 60.8571 7.29083 60.8571C7.21484 60.8571 7.14364 60.8697 7.07637 60.8953C7.00836 60.9211 6.94983 60.9575 6.90053 61.0038V60.5631C6.93716 60.5505 6.98582 60.5411 7.04703 60.5354C7.10765 60.5292 7.18294 60.5261 7.27084 60.5261C7.54915 60.5261 7.77162 60.5925 7.93818 60.7261C8.10467 60.8596 8.18785 61.0383 8.18785 61.2609V62.051C8.18785 62.1638 8.1965 62.2654 8.21313 62.3563C8.23045 62.4466 8.25447 62.5225 8.28581 62.5839H7.85628C7.83824 62.5714 7.82226 62.5513 7.80966 62.5231C7.79627 62.4949 7.78627 62.4604 7.77831 62.4184C7.71839 62.4773 7.6431 62.5225 7.5519 62.5544C7.46063 62.5864 7.36069 62.6027 7.25154 62.6027ZM7.4473 62.2529C7.49197 62.2529 7.54051 62.2434 7.5938 62.2253C7.64775 62.2071 7.70304 62.1795 7.76029 62.1425V61.5362C7.59578 61.5631 7.45993 61.622 7.35336 61.713C7.24619 61.8033 7.19287 61.9036 7.19287 62.0139C7.19287 62.0804 7.21758 62.1362 7.26751 62.1832C7.31681 62.2297 7.37675 62.2529 7.4473 62.2529ZM8.60145 62.5839V60.1975C8.60145 60.1436 8.59808 60.0859 8.59146 60.0244C8.58541 59.9636 8.57548 59.8984 8.56216 59.8301H9.069V62.2353C9.069 62.3086 9.07233 62.3745 9.07894 62.4334C9.08494 62.4924 9.095 62.5425 9.10824 62.5839H8.60145ZM10.3737 62.5839V61.0785C10.3737 60.9881 10.367 60.9023 10.3537 60.8214C10.3404 60.7405 10.3204 60.6672 10.2944 60.6013H10.7233C10.7493 60.6502 10.7686 60.6998 10.782 60.7499C10.7946 60.8001 10.8012 60.8483 10.8012 60.8953C10.8718 60.7825 10.9578 60.6928 11.059 60.6264C11.1609 60.5593 11.2634 60.5261 11.368 60.5261C11.3993 60.5261 11.4266 60.5292 11.4499 60.5354C11.4732 60.5411 11.4912 60.5505 11.5045 60.5624V60.9656C11.4679 60.9531 11.4385 60.9436 11.4166 60.938C11.3947 60.9317 11.3786 60.9286 11.368 60.9286C11.2221 60.9286 11.0983 60.9932 10.995 61.1217C10.8925 61.2502 10.8412 61.407 10.8412 61.5907V62.5839H10.3737ZM12.5261 62.6591C12.2837 62.6591 12.0766 62.5513 11.9048 62.3357C11.7329 62.1199 11.647 61.8603 11.647 61.5563C11.647 61.2816 11.727 61.0478 11.8875 60.854C12.0472 60.6603 12.2411 60.5636 12.4675 60.5636C12.6786 60.5636 12.8585 60.6533 13.007 60.832C13.1555 61.0107 13.2294 61.2277 13.2294 61.4823L12.1938 61.8497C12.2198 61.982 12.2785 62.0917 12.3696 62.1788C12.4609 62.266 12.5648 62.3093 12.6819 62.3093C12.7552 62.3093 12.8278 62.2917 12.8991 62.256C12.971 62.2202 13.0356 62.1707 13.0929 62.1074L13.2487 62.3093C13.1708 62.4197 13.0676 62.5055 12.9404 62.567C12.8125 62.6284 12.6747 62.6591 12.5261 62.6591ZM12.1146 61.5186L12.5654 61.3713C12.6207 61.3493 12.6633 61.3198 12.6946 61.2835C12.7259 61.2465 12.7419 61.2083 12.7419 61.1694C12.7419 61.0835 12.7212 61.0101 12.6793 60.9487C12.6373 60.8878 12.5861 60.8571 12.5261 60.8571C12.4136 60.8571 12.3171 60.9073 12.2364 61.0076C12.1551 61.1079 12.1146 61.2296 12.1146 61.3713V61.5186ZM14.01 62.6404C13.8901 62.6404 13.7822 62.6309 13.687 62.6121C13.5917 62.5933 13.5105 62.5658 13.4425 62.5294V61.9613C13.5364 62.0811 13.6424 62.1757 13.7595 62.2441C13.8768 62.3124 13.9933 62.3469 14.1078 62.3469C14.1891 62.3469 14.2577 62.3237 14.3156 62.2773C14.3729 62.2303 14.4015 62.1739 14.4015 62.108C14.4015 62.0541 14.379 62.0008 14.3329 61.9475C14.2877 61.8948 14.2257 61.8503 14.1472 61.8133L13.8535 61.6666C13.7282 61.6077 13.6284 61.5305 13.5544 61.4346C13.4798 61.3393 13.4425 61.2383 13.4425 61.133C13.4425 60.9662 13.5284 60.8232 13.6996 60.7048C13.8714 60.5856 14.0779 60.5261 14.3197 60.5261C14.3823 60.5261 14.4375 60.5292 14.4855 60.5354C14.5341 60.5411 14.5761 60.5505 14.6127 60.5631L14.632 60.9493C14.5621 60.9248 14.4902 60.9067 14.4176 60.8941C14.3443 60.8822 14.273 60.8759 14.2031 60.8759C14.1218 60.8759 14.0539 60.8935 13.998 60.9292C13.9421 60.965 13.914 61.0082 13.914 61.0597C13.914 61.0866 13.93 61.1167 13.9614 61.1499C13.9927 61.1832 14.0339 61.2139 14.0859 61.2434L14.4188 61.4089C14.5494 61.4628 14.6533 61.5431 14.7319 61.6496C14.8098 61.7563 14.8491 61.8722 14.8491 61.997C14.8491 62.1732 14.7672 62.325 14.6033 62.451C14.4389 62.577 14.2411 62.6404 14.01 62.6404ZM15.8974 62.6591C15.655 62.6591 15.4479 62.5513 15.276 62.3357C15.1042 62.1199 15.0183 61.8603 15.0183 61.5563C15.0183 61.2816 15.0982 61.0478 15.2587 60.854C15.4185 60.6603 15.6123 60.5636 15.8387 60.5636C16.0499 60.5636 16.2297 60.6533 16.3783 60.832C16.5267 61.0107 16.6007 61.2277 16.6007 61.4823L15.565 61.8497C15.591 61.982 15.6497 62.0917 15.7409 62.1788C15.8321 62.266 15.936 62.3093 16.0532 62.3093C16.1265 62.3093 16.1991 62.2917 16.2703 62.256C16.3422 62.2202 16.4069 62.1707 16.4641 62.1074L16.62 62.3093C16.542 62.4197 16.4388 62.5055 16.3116 62.567C16.1838 62.6284 16.0459 62.6591 15.8974 62.6591ZM15.4859 61.5186L15.9367 61.3713C15.992 61.3493 16.0346 61.3198 16.0658 61.2835C16.0972 61.2465 16.1131 61.2083 16.1131 61.1694C16.1131 61.0835 16.0925 61.0101 16.0505 60.9487C16.0086 60.8878 15.9574 60.8571 15.8974 60.8571C15.7848 60.8571 15.6883 60.9073 15.6076 61.0076C15.5264 61.1079 15.4859 61.2296 15.4859 61.3713V61.5186ZM17.304 62.6027C17.1528 62.6027 17.0242 62.5544 16.9177 62.4572C16.8111 62.3607 16.7578 62.2441 16.7578 62.1068C16.7578 61.9011 16.8537 61.7148 17.0449 61.5481C17.2361 61.3813 17.4784 61.2735 17.7722 61.2246C17.7722 61.1142 17.7329 61.0258 17.655 60.9581C17.577 60.8909 17.4731 60.8571 17.3432 60.8571C17.2673 60.8571 17.1961 60.8697 17.1288 60.8953C17.0609 60.9211 17.0023 60.9575 16.953 61.0038V60.5631C16.9896 60.5505 17.0382 60.5411 17.0994 60.5354C17.1601 60.5292 17.2354 60.5261 17.3232 60.5261C17.6017 60.5261 17.8241 60.5925 17.9906 60.7261C18.1571 60.8596 18.2403 61.0383 18.2403 61.2609V62.051C18.2403 62.1638 18.2489 62.2654 18.2656 62.3563C18.283 62.4466 18.307 62.5225 18.3382 62.5839H17.9087C17.8907 62.5714 17.8747 62.5513 17.8621 62.5231C17.8488 62.4949 17.8387 62.4604 17.8308 62.4184C17.7708 62.4773 17.6955 62.5225 17.6043 62.5544C17.5131 62.5864 17.4131 62.6027 17.304 62.6027ZM17.4997 62.2529C17.5444 62.2529 17.593 62.2434 17.6463 62.2253C17.7002 62.2071 17.7555 62.1795 17.8128 62.1425V61.5362C17.6482 61.5631 17.5124 61.622 17.4059 61.713C17.2986 61.8033 17.2453 61.9036 17.2453 62.0139C17.2453 62.0804 17.27 62.1362 17.3199 62.1832C17.3692 62.2297 17.4292 62.2529 17.4997 62.2529ZM18.6659 62.5839V61.0785C18.6659 60.9881 18.6592 60.9023 18.6459 60.8214C18.6326 60.7405 18.6125 60.6672 18.5866 60.6013H19.0155C19.0415 60.6502 19.0608 60.6998 19.0742 60.7499C19.0868 60.8001 19.0934 60.8483 19.0934 60.8953C19.164 60.7825 19.25 60.6928 19.3512 60.6264C19.4531 60.5593 19.5556 60.5261 19.6602 60.5261C19.6915 60.5261 19.7188 60.5292 19.7421 60.5354C19.7654 60.5411 19.7834 60.5505 19.7967 60.5624V60.9656C19.7601 60.9531 19.7308 60.9436 19.7089 60.938C19.6868 60.9317 19.6708 60.9286 19.6602 60.9286C19.5144 60.9286 19.3905 60.9932 19.2872 61.1217C19.1847 61.2502 19.1334 61.407 19.1334 61.5907V62.5839H18.6659ZM20.7697 62.6742C20.5386 62.6742 20.3408 62.5758 20.177 62.3789C20.0132 62.182 19.9313 61.9443 19.9313 61.6654C19.9313 61.3719 20.0338 61.1211 20.239 60.9129C20.4447 60.7054 20.6924 60.6013 20.9841 60.6013H21.2572V61.1161C21.1973 61.0571 21.1367 61.012 21.0761 60.98C21.0148 60.948 20.9582 60.9324 20.9062 60.9324C20.7657 60.9324 20.6459 60.9982 20.5473 61.1305C20.4481 61.2622 20.3988 61.4221 20.3988 61.6101C20.3988 61.8127 20.454 61.9857 20.5646 62.1287C20.6758 62.2716 20.8091 62.3432 20.9649 62.3432C21.0122 62.3432 21.0647 62.3294 21.1234 62.3011C21.182 62.2729 21.2399 62.2315 21.2972 62.1776L21.453 62.3983C21.3751 62.4867 21.2758 62.5544 21.1567 62.6027C21.0368 62.6504 20.9083 62.6742 20.7697 62.6742ZM21.6981 62.5839V60.1975C21.6981 60.1235 21.6947 60.0564 21.6881 59.995C21.6821 59.9341 21.6722 59.879 21.6588 59.8301H22.1657V60.7292C22.2043 60.6778 22.2655 60.637 22.3481 60.6076C22.4314 60.5781 22.526 60.5636 22.6325 60.5636C22.7824 60.5636 22.9109 60.627 23.0175 60.753C23.1233 60.879 23.1766 61.0302 23.1766 61.2064V62.2535C23.1766 62.3193 23.1799 62.3808 23.1866 62.4372C23.1926 62.4936 23.2026 62.5425 23.2159 62.5839H22.7091V61.1706C22.7091 61.0998 22.6804 61.039 22.6239 60.9888C22.5665 60.9387 22.4979 60.9136 22.4181 60.9136C22.3741 60.9136 22.3301 60.9217 22.2862 60.9374C22.2422 60.9531 22.2016 60.9762 22.1657 61.0051V62.4002C22.1657 62.4197 22.169 62.4447 22.1756 62.4755C22.1817 62.5062 22.1917 62.5425 22.2049 62.5839H21.6981ZM25.1285 62.6216C24.8968 62.6216 24.6997 62.5425 24.5372 62.3845C24.3747 62.2266 24.2934 62.0359 24.2934 61.8133C24.2934 61.5757 24.3707 61.3669 24.5252 61.1869C24.6797 61.007 24.8755 60.8973 25.1119 60.8578L24.761 60.1047V59.7925H26.2035V60.2138H25.3631L26.0669 61.518C26.1289 61.4377 26.1808 61.3437 26.2208 61.2371C26.2614 61.1305 26.2881 61.0164 26.3007 60.8935L26.7303 61.022C26.6883 61.1788 26.6324 61.333 26.5605 61.4854C26.4892 61.6372 26.4026 61.7826 26.3007 61.9224L26.7109 62.5839H26.1256L25.9498 62.308C25.8611 62.4065 25.7446 62.483 25.6014 62.5381C25.4582 62.594 25.3004 62.6216 25.1285 62.6216ZM25.2471 62.219C25.3304 62.219 25.4143 62.1964 25.4989 62.1513C25.5834 62.1055 25.662 62.0428 25.7353 61.9619L25.2671 61.1901C25.1319 61.2371 25.0234 61.3104 24.9421 61.4108C24.8616 61.5111 24.8209 61.6214 24.8209 61.7412C24.8209 61.8735 24.8622 61.9864 24.9441 62.0792C25.0267 62.1726 25.1279 62.219 25.2471 62.219ZM28.4205 62.6216C28.2148 62.6216 28.0496 62.5294 27.9244 62.3457C27.7992 62.162 27.7366 61.9174 27.7366 61.6108C27.7366 61.2947 27.8185 61.0415 27.983 60.8502C28.1475 60.659 28.3653 60.5636 28.6363 60.5636C28.663 60.5636 28.6956 60.5668 28.7342 60.5731C28.7735 60.5794 28.8195 60.5887 28.8714 60.6013V60.1957C28.8714 60.1342 28.8681 60.0759 28.8615 60.0207C28.8555 59.9655 28.8454 59.9129 28.8321 59.8639H29.339V62.2341C29.339 62.3005 29.3443 62.3632 29.3543 62.4221C29.365 62.4811 29.3796 62.535 29.3976 62.5839H28.968C28.9494 62.5619 28.9354 62.5357 28.9247 62.5049C28.9147 62.4742 28.9093 62.4397 28.9093 62.4002C28.8361 62.4711 28.7576 62.5256 28.673 62.5638C28.5884 62.6021 28.5045 62.6216 28.4205 62.6216ZM28.597 62.2341C28.6597 62.2341 28.7163 62.219 28.7675 62.1883C28.8182 62.1576 28.8535 62.118 28.8714 62.0692V60.9311C28.8481 60.9192 28.8215 60.9098 28.7929 60.9041C28.7642 60.8979 28.7316 60.8947 28.6949 60.8947C28.5644 60.8947 28.4532 60.9662 28.3613 61.1092C28.27 61.2528 28.2241 61.4258 28.2241 61.6284C28.2241 61.7951 28.2607 61.9375 28.334 62.056C28.4072 62.1745 28.4945 62.2341 28.597 62.2341ZM30.5391 62.6591C30.2967 62.6591 30.0895 62.5513 29.9178 62.3357C29.7459 62.1199 29.66 61.8603 29.66 61.5563C29.66 61.2816 29.7399 61.0478 29.9004 60.854C30.0603 60.6603 30.2541 60.5636 30.4805 60.5636C30.6916 60.5636 30.8714 60.6533 31.0199 60.832C31.1685 61.0107 31.2424 61.2277 31.2424 61.4823L30.2067 61.8497C30.2327 61.982 30.2914 62.0917 30.3826 62.1788C30.4739 62.266 30.5777 62.3093 30.6949 62.3093C30.7682 62.3093 30.8408 62.2917 30.9121 62.256C30.9839 62.2202 31.0486 62.1707 31.1059 62.1074L31.2616 62.3093C31.1838 62.4197 31.0805 62.5055 30.9533 62.567C30.8255 62.6284 30.6876 62.6591 30.5391 62.6591ZM30.1275 61.5186L30.5784 61.3713C30.6337 61.3493 30.6763 61.3198 30.7075 61.2835C30.7389 61.2465 30.7549 61.2083 30.7549 61.1694C30.7549 61.0835 30.7342 61.0101 30.6923 60.9487C30.6504 60.8878 30.5991 60.8571 30.5391 60.8571C30.4265 60.8571 30.33 60.9073 30.2494 61.0076C30.1681 61.1079 30.1275 61.2296 30.1275 61.3713V61.5186ZM31.9956 62.5839L31.3716 60.6013H31.8777L32.2673 61.9237C32.3532 61.7011 32.4238 61.4791 32.4798 61.259C32.5357 61.0383 32.575 60.8195 32.5984 60.6013H33.0099C32.9946 60.7944 32.938 61.0571 32.8401 61.3888C32.7428 61.7205 32.6043 62.1187 32.4245 62.5839H31.9956ZM34.0509 62.6591C33.8084 62.6591 33.6013 62.5513 33.4295 62.3357C33.2576 62.1199 33.1717 61.8603 33.1717 61.5563C33.1717 61.2816 33.2517 61.0478 33.4122 60.854C33.572 60.6603 33.7658 60.5636 33.9922 60.5636C34.2033 60.5636 34.3831 60.6533 34.5317 60.832C34.6802 61.0107 34.7541 61.2277 34.7541 61.4823L33.7185 61.8497C33.7445 61.982 33.8031 62.0917 33.8943 62.1788C33.9856 62.266 34.0895 62.3093 34.2067 62.3093C34.2799 62.3093 34.3525 62.2917 34.4238 62.256C34.4957 62.2202 34.5603 62.1707 34.6177 62.1074L34.7734 62.3093C34.6955 62.4197 34.5923 62.5055 34.4651 62.567C34.3372 62.6284 34.1994 62.6591 34.0509 62.6591ZM33.6393 61.5186L34.0902 61.3713C34.1455 61.3493 34.1881 61.3198 34.2193 61.2835C34.2506 61.2465 34.2666 61.2083 34.2666 61.1694C34.2666 61.0835 34.2459 61.0101 34.204 60.9487C34.1621 60.8878 34.1108 60.8571 34.0509 60.8571C33.9383 60.8571 33.8418 60.9073 33.7611 61.0076C33.6799 61.1079 33.6393 61.2296 33.6393 61.3713V61.5186ZM35.0552 62.5839V60.1975C35.0552 60.1436 35.0518 60.0859 35.0452 60.0244C35.0391 59.9636 35.0292 59.8984 35.0159 59.8301H35.5227V62.2353C35.5227 62.3086 35.526 62.3745 35.5327 62.4334C35.5387 62.4924 35.5487 62.5425 35.562 62.5839H35.0552ZM36.7155 62.6216C36.455 62.6216 36.2467 62.525 36.0907 62.3313C35.935 62.1375 35.8571 61.8785 35.8571 61.555C35.8571 61.2314 35.9369 60.9725 36.0975 60.7787C36.2579 60.585 36.4711 60.4884 36.7368 60.4884C37.0078 60.4884 37.2257 60.5806 37.3895 60.7643C37.5533 60.948 37.6352 61.1932 37.6352 61.4998C37.6352 61.8384 37.552 62.1099 37.3848 62.3143C37.2177 62.5193 36.9952 62.6216 36.7155 62.6216ZM36.7561 62.3281C36.8627 62.3281 36.9546 62.2529 37.0298 62.1017C37.1058 61.9506 37.1437 61.7688 37.1437 61.555C37.1437 61.3318 37.1091 61.1468 37.0398 61.0007C36.9706 60.8546 36.8827 60.7819 36.7754 60.7819C36.6449 60.7819 36.5403 60.8534 36.4617 60.9969C36.3838 61.1406 36.3445 61.333 36.3445 61.5731C36.3445 61.782 36.3852 61.9601 36.4658 62.1074C36.547 62.2548 36.6435 62.3281 36.7561 62.3281ZM37.9549 63.2837V60.8953C37.9549 60.822 37.9515 60.7543 37.9449 60.6928C37.9389 60.6321 37.9289 60.5762 37.9156 60.5261H38.3644C38.3698 60.5386 38.3758 60.568 38.3818 60.6151C38.3884 60.6621 38.3958 60.7066 38.4038 60.748C38.4604 60.6722 38.5342 60.6132 38.6236 60.5706C38.7135 60.5285 38.8093 60.5072 38.9106 60.5072C39.0977 60.5072 39.2583 60.5988 39.3921 60.7813C39.526 60.9637 39.5932 61.1851 39.5932 61.4446C39.5932 61.7631 39.5013 62.0359 39.3182 62.2629C39.1344 62.4892 38.9139 62.6027 38.6568 62.6027C38.6149 62.6027 38.5749 62.6009 38.5356 62.5971C38.4963 62.5933 38.459 62.589 38.4225 62.5839V63.2837H37.9549ZM38.5982 62.2905C38.7334 62.2905 38.8486 62.219 38.9432 62.0754C39.0385 61.9324 39.0857 61.7588 39.0857 61.5556C39.0857 61.3669 39.0491 61.2064 38.9765 61.0741C38.9039 60.9418 38.8167 60.8759 38.7147 60.8759C38.6555 60.8759 38.5995 60.8904 38.5476 60.9198C38.495 60.9493 38.4537 60.9901 38.4225 61.0415V62.2353C38.4404 62.2522 38.4651 62.266 38.4963 62.276C38.5276 62.2855 38.5616 62.2905 38.5982 62.2905ZM39.9175 62.5839V61.0966C39.9175 60.9819 39.9142 60.8828 39.9075 60.7994C39.9015 60.7161 39.8916 60.6502 39.8782 60.6013H40.2898C40.3032 60.6282 40.3137 60.6608 40.3211 60.6985C40.3292 60.7368 40.3331 60.7775 40.3331 60.822C40.3957 60.7411 40.473 60.6778 40.5649 60.6321C40.6574 60.5863 40.754 60.5636 40.8552 60.5636C40.9518 60.5636 41.0417 60.59 41.1263 60.6427C41.2109 60.6954 41.2768 60.7668 41.3234 60.8578C41.3933 60.7643 41.4787 60.6922 41.5785 60.6408C41.6791 60.5894 41.7823 60.5636 41.8889 60.5636C42.034 60.5636 42.1586 60.6233 42.2612 60.7417C42.3637 60.8609 42.415 61.0032 42.415 61.17V62.5839H41.9474V61.1694C41.9474 61.108 41.9248 61.0559 41.8788 61.0132C41.8329 60.9706 41.777 60.9493 41.711 60.9493C41.6531 60.9493 41.5958 60.9725 41.5379 61.0189C41.4799 61.0653 41.4326 61.128 41.396 61.2064V62.5839H40.9285V61.2076C40.9285 61.1318 40.9119 61.0672 40.8779 61.0132C40.8446 60.9593 40.8033 60.9324 40.754 60.9324C40.6734 60.9324 40.6002 60.9524 40.5322 60.9932C40.465 61.0333 40.4164 61.0866 40.3851 61.1525V62.5839H39.9175ZM43.5918 62.6591C43.3494 62.6591 43.1423 62.5513 42.9704 62.3357C42.7986 62.1199 42.7127 61.8603 42.7127 61.5563C42.7127 61.2816 42.7926 61.0478 42.9532 60.854C43.1129 60.6603 43.3067 60.5636 43.5331 60.5636C43.7443 60.5636 43.9241 60.6533 44.0726 60.832C44.2212 61.0107 44.2951 61.2277 44.2951 61.4823L43.2595 61.8497C43.2854 61.982 43.3441 62.0917 43.4353 62.1788C43.5265 62.266 43.6304 62.3093 43.7476 62.3093C43.8209 62.3093 43.8934 62.2917 43.9648 62.256C44.0367 62.2202 44.1012 62.1707 44.1586 62.1074L44.3144 62.3093C44.2365 62.4197 44.1332 62.5055 44.006 62.567C43.8781 62.6284 43.7403 62.6591 43.5918 62.6591ZM43.1802 61.5186L43.6311 61.3713C43.6864 61.3493 43.729 61.3198 43.7602 61.2835C43.7916 61.2465 43.8076 61.2083 43.8076 61.1694C43.8076 61.0835 43.7869 61.0101 43.745 60.9487C43.7031 60.8878 43.6517 60.8571 43.5918 60.8571C43.4792 60.8571 43.3827 60.9073 43.3021 61.0076C43.2208 61.1079 43.1802 61.2296 43.1802 61.3713V61.5186ZM44.6001 62.5839V60.8947C44.6001 60.8314 44.5968 60.775 44.5901 60.7261C44.5835 60.6772 44.5734 60.6358 44.5601 60.6013H44.989C45.0017 60.6427 45.0117 60.6822 45.0176 60.7185C45.0244 60.7556 45.0277 60.79 45.0277 60.822C45.0949 60.7361 45.1769 60.6684 45.2728 60.6189C45.3686 60.5693 45.4686 60.5449 45.5724 60.5449C45.7129 60.5449 45.8322 60.6026 45.9307 60.7173C46.0293 60.8327 46.0786 60.9706 46.0786 61.1324V62.0685C46.0786 62.1883 46.0852 62.2917 46.0979 62.3783C46.1112 62.4654 46.1306 62.5337 46.1565 62.5839H45.6511V61.2258C45.6511 61.1399 45.6244 61.0666 45.5711 61.0051C45.5179 60.9443 45.4539 60.9136 45.3786 60.9136C45.3241 60.9136 45.2695 60.933 45.2135 60.9725C45.1576 61.0114 45.1089 61.0653 45.0676 61.1336V62.5839H44.6001ZM47.1148 62.6027C46.9797 62.6027 46.8651 62.5526 46.7706 62.4523C46.6753 62.3519 46.6281 62.2303 46.6281 62.088V60.8571H46.3157V60.5636H46.6281V59.9392H47.0956V60.5636H47.4858V60.8571H47.0956V62.0516C47.0956 62.1174 47.1162 62.1739 47.1582 62.2209C47.1995 62.2672 47.2501 62.2905 47.31 62.2905C47.3573 62.2905 47.3986 62.2855 47.4353 62.276C47.4712 62.266 47.5011 62.2522 47.5251 62.2353V62.5112C47.4698 62.54 47.4079 62.5632 47.3373 62.5789C47.2674 62.5946 47.1928 62.6027 47.1148 62.6027ZM49.1335 62.6404C49.0137 62.6404 48.9058 62.6309 48.8105 62.6121C48.7153 62.5933 48.634 62.5658 48.5661 62.5294V61.9613C48.66 62.0811 48.7659 62.1757 48.8831 62.2441C49.0003 62.3124 49.1169 62.3469 49.2314 62.3469C49.3127 62.3469 49.3813 62.3237 49.4392 62.2773C49.4965 62.2303 49.5251 62.1739 49.5251 62.108C49.5251 62.0541 49.5025 62.0008 49.4565 61.9475C49.4112 61.8948 49.3492 61.8503 49.2707 61.8133L48.977 61.6666C48.8518 61.6077 48.7519 61.5305 48.6779 61.4346C48.6034 61.3393 48.5661 61.2383 48.5661 61.133C48.5661 60.9662 48.652 60.8232 48.8232 60.7048C48.995 60.5856 49.2014 60.5261 49.4432 60.5261C49.5058 60.5261 49.5611 60.5292 49.609 60.5354C49.6577 60.5411 49.6996 60.5505 49.7362 60.5631L49.7556 60.9493C49.6856 60.9248 49.6137 60.9067 49.5411 60.8941C49.4678 60.8822 49.3965 60.8759 49.3267 60.8759C49.2454 60.8759 49.1775 60.8935 49.1215 60.9292C49.0656 60.965 49.0376 61.0082 49.0376 61.0597C49.0376 61.0866 49.0536 61.1167 49.0849 61.1499C49.1162 61.1832 49.1575 61.2139 49.2094 61.2434L49.5424 61.4089C49.673 61.4628 49.7769 61.5431 49.8554 61.6496C49.9333 61.7563 49.9726 61.8722 49.9726 61.997C49.9726 62.1732 49.8907 62.325 49.7269 62.451C49.5624 62.577 49.3646 62.6404 49.1335 62.6404ZM51.0083 62.6216C50.7478 62.6216 50.5394 62.525 50.3836 62.3313C50.2277 62.1375 50.1498 61.8785 50.1498 61.555C50.1498 61.2314 50.2297 60.9725 50.3903 60.7787C50.5507 60.585 50.7639 60.4884 51.0296 60.4884C51.3006 60.4884 51.5184 60.5806 51.6822 60.7643C51.846 60.948 51.928 61.1932 51.928 61.4998C51.928 61.8384 51.8448 62.1099 51.6776 62.3143C51.5104 62.5193 51.288 62.6216 51.0083 62.6216ZM51.0489 62.3281C51.1554 62.3281 51.2473 62.2529 51.3226 62.1017C51.3986 61.9506 51.4365 61.7688 51.4365 61.555C51.4365 61.3318 51.4019 61.1468 51.3326 61.0007C51.2633 60.8546 51.1754 60.7819 51.0682 60.7819C50.9377 60.7819 50.8332 60.8534 50.7545 60.9969C50.6766 61.1406 50.6373 61.333 50.6373 61.5731C50.6373 61.782 50.678 61.9601 50.7585 62.1074C50.8398 62.2548 50.9363 62.3281 51.0489 62.3281ZM52.9702 62.6742C52.7392 62.6742 52.5414 62.5758 52.3775 62.3789C52.2137 62.182 52.1318 61.9443 52.1318 61.6654C52.1318 61.3719 52.2344 61.1211 52.4395 60.9129C52.6453 60.7054 52.893 60.6013 53.1847 60.6013H53.4577V61.1161C53.3978 61.0571 53.3372 61.012 53.2767 60.98C53.2153 60.948 53.1587 60.9324 53.1068 60.9324C52.9663 60.9324 52.8464 60.9982 52.7478 61.1305C52.6486 61.2622 52.5993 61.4221 52.5993 61.6101C52.5993 61.8127 52.6546 61.9857 52.7652 62.1287C52.8764 62.2716 53.0095 62.3432 53.1655 62.3432C53.2127 62.3432 53.2653 62.3294 53.3239 62.3011C53.3825 62.2729 53.4404 62.2315 53.4977 62.1776L53.6536 62.3983C53.5756 62.4867 53.4764 62.5544 53.3572 62.6027C53.2374 62.6504 53.1088 62.6742 52.9702 62.6742ZM53.9067 62.5839V61.0051C53.9067 60.9392 53.9034 60.8722 53.8966 60.8051C53.8906 60.738 53.8807 60.6696 53.8674 60.6013H54.3742V62.1801C54.3742 62.2704 54.3775 62.35 54.3841 62.4184C54.3908 62.4874 54.4008 62.5425 54.4135 62.5839H53.9067ZM54.0804 60.417C54.0106 60.417 53.9506 60.39 53.9006 60.3361C53.8514 60.2821 53.8267 60.2176 53.8267 60.1417C53.8267 60.0458 53.8514 59.9636 53.9006 59.8953C53.9506 59.8269 54.0106 59.7925 54.0804 59.7925C54.1564 59.7925 54.2209 59.8232 54.2743 59.884C54.3276 59.9455 54.3542 60.0188 54.3542 60.1047C54.3542 60.1906 54.3276 60.264 54.2743 60.3255C54.2209 60.3862 54.1564 60.417 54.0804 60.417ZM55.5749 62.6591C55.3325 62.6591 55.1254 62.5513 54.9536 62.3357C54.7818 62.1199 54.6959 61.8603 54.6959 61.5563C54.6959 61.2816 54.7757 61.0478 54.9363 60.854C55.096 60.6603 55.2899 60.5636 55.5163 60.5636C55.7275 60.5636 55.9073 60.6533 56.0558 60.832C56.2043 61.0107 56.2783 61.2277 56.2783 61.4823L55.2426 61.8497C55.2686 61.982 55.3272 62.0917 55.4184 62.1788C55.5097 62.266 55.6136 62.3093 55.7308 62.3093C55.804 62.3093 55.8767 62.2917 55.9479 62.256C56.0198 62.2202 56.0845 62.1707 56.1417 62.1074L56.2975 62.3093C56.2196 62.4197 56.1164 62.5055 55.9892 62.567C55.8613 62.6284 55.7235 62.6591 55.5749 62.6591ZM55.1634 61.5186L55.6143 61.3713C55.6695 61.3493 55.7122 61.3198 55.7434 61.2835C55.7747 61.2465 55.7907 61.2083 55.7907 61.1694C55.7907 61.0835 55.7701 61.0101 55.7281 60.9487C55.6862 60.8878 55.6349 60.8571 55.5749 60.8571C55.4624 60.8571 55.3658 60.9073 55.2852 61.0076C55.204 61.1079 55.1634 61.2296 55.1634 61.3713V61.5186Z" fill="white"/>
<path fill-rule="evenodd" clip-rule="evenodd" d="M57.1939 62.6027C57.0588 62.6027 56.9441 62.5526 56.8497 62.4523C56.7544 62.3519 56.7071 62.2303 56.7071 62.088V60.8572H56.3948V60.5637H56.7071V59.9392H57.1746V60.5637H57.5649V60.8572H57.1746V62.0516C57.1746 62.1175 57.1952 62.1739 57.2372 62.2209C57.2786 62.2673 57.3291 62.2905 57.3891 62.2905C57.4364 62.2905 57.4777 62.2855 57.5143 62.2761C57.5502 62.2661 57.5802 62.2522 57.6042 62.2353V62.5112C57.5489 62.5401 57.487 62.5633 57.4163 62.5789C57.3465 62.5946 57.2719 62.6027 57.1939 62.6027ZM57.9432 63.3175C57.9158 63.3175 57.8859 63.3144 57.8526 63.3082C57.8193 63.3019 57.7847 63.2931 57.748 63.2805L57.768 62.8567C57.7913 62.8862 57.8199 62.9088 57.8533 62.925C57.8873 62.9407 57.9239 62.9489 57.9625 62.9489C58.0278 62.9489 58.101 62.9144 58.1816 62.846C58.2621 62.7777 58.3388 62.6836 58.4114 62.5639L57.6894 60.6013H58.2162L58.6265 61.8685C58.6964 61.6848 58.7564 61.4873 58.8056 61.2754C58.8549 61.0635 58.8929 60.839 58.9188 60.6013H59.387L59.3484 60.7851C59.2052 61.5506 59.0054 62.1645 58.749 62.626C58.4926 63.0868 58.2242 63.3175 57.9432 63.3175Z" fill="white"/>
<path fill-rule="evenodd" clip-rule="evenodd" d="M0 58.0586H60V58.6155H0V58.0586Z" fill="white"/>
<path fill-rule="evenodd" clip-rule="evenodd" d="M0 63.4419H60V63.9987H0V63.4419Z" fill="white"/>
</svg>
