<svg width="15" height="24" viewBox="0 0 15 24" fill="none" xmlns="http://www.w3.org/2000/svg">
<path d="M7.16602 20.5C5.23602 20.5 3.66602 18.93 3.66602 17C3.66602 15.07 5.23602 13.5 7.16602 13.5C9.09602 13.5 10.666 15.07 10.666 17C10.666 18.93 9.09602 20.5 7.16602 20.5ZM7.16602 15C6.06302 15 5.16602 15.897 5.16602 17C5.16602 18.103 6.06302 19 7.16602 19C8.26902 19 9.16602 18.103 9.16602 17C9.16602 15.897 8.26902 15 7.16602 15Z" fill="black"/>
<path d="M11.7322 13.177L10.2802 12.803L12.7902 3.063C12.8892 2.682 12.8092 2.289 12.5722 1.981C12.3352 1.675 11.9762 1.5 11.5862 1.5H2.74621C2.35621 1.5 1.99621 1.675 1.76021 1.981C1.52321 2.288 1.44321 2.682 1.54221 3.061L4.05221 12.792L2.60021 13.167L0.0902075 3.437C-0.125793 2.606 0.0502077 1.74 0.574208 1.063C1.09621 0.388 1.88821 0 2.74621 0H11.5862C12.4442 0 13.2362 0.388 13.7582 1.064C14.2822 1.741 14.4582 2.606 14.2422 3.439L11.7322 13.177Z" fill="black"/>
<path d="M4.66602 0.75H6.16602V10.81H4.66602V0.75Z" fill="black"/>
<path d="M8.16602 0.75H9.66602V10.81H8.16602V0.75Z" fill="black"/>
<path d="M5.07716 23.999C4.82316 23.999 4.56816 23.95 4.32916 23.851C3.83116 23.645 3.43616 23.237 3.24716 22.732L2.82516 21.608C2.77916 21.485 2.68216 21.388 2.55916 21.342L1.43416 20.92C0.930158 20.731 0.521158 20.337 0.315158 19.838C0.108158 19.34 0.118158 18.773 0.341158 18.281L0.837158 17.188C0.892158 17.068 0.892158 16.932 0.837158 16.813L0.340158 15.719C0.117158 15.228 0.108158 14.661 0.314158 14.163C0.520158 13.665 0.928158 13.27 1.43316 13.081L2.55716 12.659C2.68016 12.613 2.77716 12.516 2.82316 12.393L3.24516 11.268C3.43416 10.764 3.82816 10.355 4.32716 10.149C4.82316 9.94204 5.39216 9.95104 5.88416 10.175L6.97716 10.671C7.09716 10.726 7.23316 10.725 7.35216 10.671L8.44616 10.174C8.93616 9.95104 9.50416 9.94104 10.0022 10.148C10.5002 10.354 10.8952 10.762 11.0842 11.267L11.5062 12.391C11.5522 12.514 11.6492 12.611 11.7722 12.657L12.8972 13.079C13.4012 13.268 13.8102 13.662 14.0162 14.161C14.2232 14.659 14.2132 15.226 13.9902 15.718L13.4942 16.811C13.4392 16.931 13.4392 17.067 13.4942 17.186L13.9912 18.28C14.2142 18.771 14.2232 19.338 14.0172 19.836C13.8112 20.334 13.4032 20.729 12.8982 20.918L11.7742 21.34C11.6512 21.386 11.5542 21.483 11.5082 21.606L11.0862 22.731C10.8972 23.235 10.5032 23.644 10.0042 23.85C9.50616 24.057 8.93916 24.048 8.44716 23.824L7.35416 23.328C7.23416 23.273 7.09816 23.274 6.97916 23.328L5.88516 23.825C5.63016 23.941 5.35316 23.999 5.07716 23.999ZM5.07816 11.5C5.00316 11.5 4.94216 11.519 4.90316 11.535C4.83516 11.563 4.71216 11.634 4.65216 11.795L4.23016 12.92C4.03216 13.448 3.61516 13.865 3.08616 14.063L1.96216 14.485C1.80116 14.546 1.73016 14.668 1.70216 14.736C1.67416 14.804 1.63716 14.941 1.70816 15.097L2.20516 16.191C2.43816 16.704 2.43816 17.294 2.20516 17.808L1.70916 18.901C1.63816 19.058 1.67416 19.195 1.70316 19.263C1.73116 19.331 1.80216 19.454 1.96316 19.514L3.08816 19.936C3.61616 20.134 4.03316 20.551 4.23116 21.08L4.65316 22.204C4.71416 22.365 4.83616 22.436 4.90416 22.464C4.97216 22.493 5.11016 22.529 5.26516 22.458L6.35916 21.961C6.87216 21.728 7.46216 21.727 7.97616 21.961L9.06916 22.457C9.22716 22.529 9.36416 22.492 9.43116 22.463C9.49916 22.435 9.62216 22.364 9.68216 22.203L10.1042 21.078C10.3022 20.55 10.7192 20.133 11.2482 19.935L12.3722 19.513C12.5332 19.452 12.6042 19.33 12.6322 19.262C12.6602 19.194 12.6972 19.057 12.6262 18.901L12.1292 17.807C11.8962 17.294 11.8962 16.704 12.1292 16.19L12.6252 15.097C12.6962 14.94 12.6602 14.803 12.6312 14.735C12.6032 14.667 12.5322 14.544 12.3712 14.484L11.2462 14.062C10.7182 13.864 10.3012 13.447 10.1032 12.918L9.68116 11.794C9.62016 11.633 9.49816 11.562 9.43016 11.534C9.36316 11.506 9.22516 11.47 9.06916 11.54L7.97516 12.037C7.46116 12.27 6.87216 12.271 6.35816 12.037L5.26516 11.541C5.19816 11.511 5.13416 11.5 5.07816 11.5Z" fill="#A6CE39"/>
</svg>
